<svg xmlns="http://www.w3.org/2000/svg" xmlns:xlink="http://www.w3.org/1999/xlink" viewBox="0 0 100 100"><path fill="#ee3e54" d="M13 27A2 2 0 1 0 13 31A2 2 0 1 0 13 27Z"/><path fill="#f1bc19" d="M77 12A1 1 0 1 0 77 14A1 1 0 1 0 77 12Z"/><path fill="#fce0a2" d="M50 13A37 37 0 1 0 50 87A37 37 0 1 0 50 13Z"/><path fill="#f1bc19" d="M83 11A4 4 0 1 0 83 19A4 4 0 1 0 83 11Z"/><path fill="#ee3e54" d="M87 22A2 2 0 1 0 87 26A2 2 0 1 0 87 22Z"/><path fill="#fbcd59" d="M81 74A2 2 0 1 0 81 78 2 2 0 1 0 81 74zM15 59A4 4 0 1 0 15 67 4 4 0 1 0 15 59z"/><path fill="#ee3e54" d="M25 85A2 2 0 1 0 25 89A2 2 0 1 0 25 85Z"/><path fill="#fff" d="M18.5 51A2.5 2.5 0 1 0 18.5 56A2.5 2.5 0 1 0 18.5 51Z"/><path fill="#f1bc19" d="M21 66A1 1 0 1 0 21 68A1 1 0 1 0 21 66Z"/><path fill="#fff" d="M80 33A1 1 0 1 0 80 35A1 1 0 1 0 80 33Z"/><path fill="#bebacb" d="M29.562,71.3c-1.027,0-1.862-0.835-1.862-1.862V63.7h6.6v5.737c0,1.027-0.835,1.862-1.862,1.862 H29.562z"/><path fill="#472b29" d="M33.6,64.4v5.037c0,0.641-0.522,1.162-1.163,1.162h-2.875c-0.641,0-1.162-0.521-1.162-1.162V64.4 H33.6 M35,63h-8v6.438C27,70.853,28.147,72,29.562,72h2.875C33.853,72,35,70.853,35,69.438V63L35,63z"/><path fill="#bebacb" d="M68.562,71.3c-1.027,0-1.862-0.835-1.862-1.862V63.7h6.6v5.737c0,1.027-0.835,1.862-1.862,1.862 H68.562z"/><path fill="#472b29" d="M72.6,64.4v5.037c0,0.641-0.522,1.162-1.163,1.162h-2.875c-0.641,0-1.162-0.521-1.162-1.162V64.4 H72.6 M74,63h-8v6.438C66,70.853,67.147,72,68.562,72h2.875C72.853,72,74,70.853,74,69.438V63L74,63z"/><path fill="#ef7d99" d="M25.467,44.5h6.066c1.082,0,1.967-0.885,1.967-1.967v-2.066c0-1.082-0.885-1.967-1.967-1.967h-6.066 c-1.082,0-1.967,0.885-1.967,1.967v2.066C23.5,43.615,24.385,44.5,25.467,44.5z"/><path fill="#472b29" d="M31.533,45.2h-6.065c-1.471,0-2.667-1.196-2.667-2.667v-2.066c0-1.471,1.197-2.667,2.667-2.667 h6.065c1.471,0,2.667,1.196,2.667,2.667v2.066C34.2,44.004,33.003,45.2,31.533,45.2z M25.467,39.2 c-0.699,0-1.267,0.568-1.267,1.267v2.066c0,0.698,0.568,1.267,1.267,1.267h6.065c0.699,0,1.267-0.568,1.267-1.267v-2.066 c0-0.698-0.568-1.267-1.267-1.267H25.467z"/><path fill="#ef7d99" d="M69.467,44.5h6.066c1.082,0,1.967-0.885,1.967-1.967v-2.066c0-1.082-0.885-1.967-1.967-1.967h-6.066 c-1.082,0-1.967,0.885-1.967,1.967v2.066C67.5,43.615,68.385,44.5,69.467,44.5z"/><path fill="#472b29" d="M75.533,45.2h-6.066c-1.471,0-2.667-1.196-2.667-2.667v-2.066c0-1.471,1.196-2.667,2.667-2.667 h6.066c1.471,0,2.667,1.196,2.667,2.667v2.066C78.2,44.004,77.004,45.2,75.533,45.2z M69.467,39.2 c-0.698,0-1.267,0.568-1.267,1.267v2.066c0,0.698,0.568,1.267,1.267,1.267h6.066c0.698,0,1.267-0.568,1.267-1.267v-2.066 c0-0.698-0.568-1.267-1.267-1.267H69.467z"/><path fill="#ef7d99" d="M29.312,65.3c-1.992,0-3.612-1.62-3.612-3.612v-8.375c0.003-0.021,0.019-0.153,0.02-0.175 c0.003-0.069-0.003-0.138-0.02-0.203c0.015-4.303,0.591-5.101,2.662-7.965c0.784-1.085,1.76-2.435,2.978-4.343 c1.041-1.633,1.438-3.714,1.823-5.727c0.84-4.4,1.565-8.2,8.038-8.2h18.598c6.473,0,7.198,3.8,8.038,8.2 c0.385,2.013,0.781,4.094,1.823,5.726c1.218,1.909,2.193,3.259,2.978,4.344c2.073,2.867,2.648,3.662,2.662,7.975 c-0.017,0.064-0.024,0.131-0.021,0.198c0.001,0.02,0.014,0.131,0.017,0.151l0.004,8.394c0,1.992-1.62,3.612-3.612,3.612H29.312z"/><path fill="#472b29" d="M59.799,27.4c5.894,0,6.537,3.368,7.35,7.631c0.397,2.078,0.807,4.226,1.92,5.971 c1.229,1.927,2.212,3.286,3.001,4.378c2.053,2.839,2.512,3.474,2.529,7.484c-0.017,0.101-0.024,0.204-0.019,0.308 c0.003,0.064,0.01,0.126,0.019,0.198v8.317c0,1.606-1.307,2.912-2.913,2.912H29.312c-1.606,0-2.912-1.307-2.912-2.912v-8.317 c0.009-0.066,0.016-0.132,0.019-0.199c0.005-0.1-0.002-0.2-0.019-0.298c0.016-4.019,0.474-4.652,2.529-7.494 c0.789-1.092,1.772-2.451,3.001-4.378c1.114-1.746,1.524-3.894,1.92-5.971c0.814-4.264,1.457-7.631,7.35-7.631H50h1H59.799 M59.799,26H51h-1h-8.799c-10.284,0-7.368,9.417-10.451,14.25C26.212,47.364,25,46.729,25,53.104l0.021-0.001 C25.018,53.174,25,53.241,25,53.313v8.375C25,64.069,26.931,66,29.312,66h42.375C74.069,66,76,64.069,76,61.688v-8.375 c0-0.072-0.018-0.138-0.021-0.209L76,53.104c0-6.375-1.212-5.74-5.75-12.854C67.167,35.417,70.083,26,59.799,26L59.799,26z"/><path fill="#84a7d7" d="M33.613,44.3c-1.36-0.549-3.222-1.3-3.39-1.849c-0.006-0.021-0.026-0.085,0.082-0.245 c0.324-0.48,0.669-1.005,1.036-1.579c1.041-1.633,1.438-3.714,1.823-5.727c0.84-4.4,1.565-8.2,8.038-8.2h18.598 c6.473,0,7.198,3.8,8.038,8.2c0.385,2.013,0.781,4.094,1.823,5.726c0.387,0.606,0.748,1.156,1.088,1.659 c0.041,0.061,0.087,0.144,0.072,0.194c-0.154,0.502-1.932,1.217-3.23,1.738L67.387,44.3H33.613z"/><path fill="#472b29" d="M59.799,27.4c5.894,0,6.537,3.368,7.35,7.631c0.397,2.078,0.807,4.226,1.92,5.971 c0.311,0.488,0.607,0.94,0.889,1.363c-0.551,0.367-1.773,0.859-2.632,1.204L67.251,43.6H33.749 c-0.922-0.372-2.166-0.882-2.691-1.26c0.276-0.414,0.567-0.858,0.873-1.338c1.114-1.746,1.524-3.894,1.92-5.971 c0.814-4.264,1.457-7.631,7.35-7.631H50h1H59.799 M59.799,26H51h-1h-8.799c-10.284,0-7.368,9.417-10.451,14.25 c-0.363,0.569-0.705,1.089-1.026,1.566C28.825,43.151,31,44,33.477,45h34.045c2.477-1,4.681-1.81,3.805-3.108 c-0.336-0.498-0.695-1.042-1.078-1.642C67.167,35.417,70.083,26,59.799,26L59.799,26z"/><g><path fill="#fde751" d="M31.5,56.3c-1.544,0-2.8-1.256-2.8-2.8s1.256-2.8,2.8-2.8h4c1.544,0,2.8,1.256,2.8,2.8 s-1.256,2.8-2.8,2.8H31.5z"/><path fill="#472b29" d="M35.5,51.4c1.158,0,2.1,0.942,2.1,2.1s-0.942,2.1-2.1,2.1h-4c-1.158,0-2.1-0.942-2.1-2.1 s0.942-2.1,2.1-2.1H35.5 M35.5,50h-4c-1.933,0-3.5,1.567-3.5,3.5s1.567,3.5,3.5,3.5h4c1.933,0,3.5-1.567,3.5-3.5 S37.433,50,35.5,50L35.5,50z"/></g><g><path fill="#fde751" d="M65.5,56.3c-1.544,0-2.8-1.256-2.8-2.8s1.256-2.8,2.8-2.8h4c1.544,0,2.8,1.256,2.8,2.8 s-1.256,2.8-2.8,2.8H65.5z"/><path fill="#472b29" d="M69.5,51.4c1.158,0,2.1,0.942,2.1,2.1s-0.942,2.1-2.1,2.1h-4c-1.158,0-2.1-0.942-2.1-2.1 s0.942-2.1,2.1-2.1H69.5 M69.5,50h-4c-1.933,0-3.5,1.567-3.5,3.5s1.567,3.5,3.5,3.5h4c1.933,0,3.5-1.567,3.5-3.5 S71.433,50,69.5,50L69.5,50z"/></g><g><path fill="#472b29" d="M75.5,61h-18c-0.276,0-0.5-0.224-0.5-0.5s0.224-0.5,0.5-0.5h18c0.276,0,0.5,0.224,0.5,0.5 S75.776,61,75.5,61z"/></g><g><path fill="#472b29" d="M44.5,61h-14c-0.276,0-0.5-0.224-0.5-0.5s0.224-0.5,0.5-0.5h14c0.276,0,0.5,0.224,0.5,0.5 S44.776,61,44.5,61z"/></g><g><path fill="#472b29" d="M44.5,41h-10c-0.276,0-0.5-0.224-0.5-0.5s0.224-0.5,0.5-0.5h10c0.276,0,0.5,0.224,0.5,0.5 S44.776,41,44.5,41z"/></g><g><path fill="#472b29" d="M51.5,41h-4c-0.276,0-0.5-0.224-0.5-0.5s0.224-0.5,0.5-0.5h4c0.276,0,0.5,0.224,0.5,0.5 S51.776,41,51.5,41z"/></g><g><path fill="#472b29" d="M53.5,61h-5c-0.276,0-0.5-0.224-0.5-0.5s0.224-0.5,0.5-0.5h5c0.276,0,0.5,0.224,0.5,0.5 S53.776,61,53.5,61z"/></g><g><path fill="#472b29" d="M44.5,57c-0.276,0-0.5-0.224-0.5-0.5v-5c0-0.276,0.224-0.5,0.5-0.5s0.5,0.224,0.5,0.5v5 C45,56.776,44.776,57,44.5,57z"/></g><g><path fill="#472b29" d="M41.5,57c-0.276,0-0.5-0.224-0.5-0.5v-5c0-0.276,0.224-0.5,0.5-0.5s0.5,0.224,0.5,0.5v5 C42,56.776,41.776,57,41.5,57z"/></g><g><path fill="#472b29" d="M47.5,57c-0.276,0-0.5-0.224-0.5-0.5v-5c0-0.276,0.224-0.5,0.5-0.5s0.5,0.224,0.5,0.5v5 C48,56.776,47.776,57,47.5,57z"/></g><g><path fill="#472b29" d="M50.5,57c-0.276,0-0.5-0.224-0.5-0.5v-5c0-0.276,0.224-0.5,0.5-0.5s0.5,0.224,0.5,0.5v5 C51,56.776,50.776,57,50.5,57z"/></g><g><path fill="#472b29" d="M53.5,57c-0.276,0-0.5-0.224-0.5-0.5v-5c0-0.276,0.224-0.5,0.5-0.5s0.5,0.224,0.5,0.5v5 C54,56.776,53.776,57,53.5,57z"/></g><g><path fill="#472b29" d="M56.5,57c-0.276,0-0.5-0.224-0.5-0.5v-5c0-0.276,0.224-0.5,0.5-0.5s0.5,0.224,0.5,0.5v5 C57,56.776,56.776,57,56.5,57z"/></g><g><path fill="#472b29" d="M59.5,57c-0.276,0-0.5-0.224-0.5-0.5v-5c0-0.276,0.224-0.5,0.5-0.5s0.5,0.224,0.5,0.5v5 C60,56.776,59.776,57,59.5,57z"/></g><g><path fill="#472b29" d="M66.7,44h-1.4c0-2.923-2.377-5.3-5.3-5.3s-5.3,2.377-5.3,5.3h-1.4c0-3.694,3.006-6.7,6.7-6.7 S66.7,40.306,66.7,44z"/></g><g><path fill="#ef7d99" d="M53,32.5h-4c-0.825,0-1.5-0.675-1.5-1.5v0c0-0.825,0.675-1.5,1.5-1.5h4c0.825,0,1.5,0.675,1.5,1.5v0 C54.5,31.825,53.825,32.5,53,32.5z"/><path fill="#472b29" d="M53,33.2h-4c-1.213,0-2.2-0.987-2.2-2.2s0.987-2.2,2.2-2.2h4c1.213,0,2.2,0.987,2.2,2.2 S54.213,33.2,53,33.2z M49,30.2c-0.441,0-0.8,0.358-0.8,0.8s0.359,0.8,0.8,0.8h4c0.441,0,0.8-0.358,0.8-0.8s-0.358-0.8-0.8-0.8H49z"/></g></svg>