<svg xmlns="http://www.w3.org/2000/svg" xmlns:xlink="http://www.w3.org/1999/xlink" viewBox="0 0 50 50" fill="#FFFFFF">
  <path d="M24 2C21.011719 2 18.398438 2.625 16.15625 3.59375C15.789063 3.707031 15.519531 4.027344 15.464844 4.40625C15.410156 4.789063 15.582031 5.167969 15.902344 5.382813C16.222656 5.59375 16.636719 5.605469 16.96875 5.40625C18.972656 4.539063 21.28125 4 24 4C28 4 31.285156 4.914063 34.03125 6.34375C34.523438 6.601563 35.132813 6.414063 35.390625 5.921875C35.648438 5.429688 35.460938 4.820313 34.96875 4.5625C31.949219 2.992188 28.304688 2 24 2 Z M 13.15625 5.3125C12.996094 5.339844 12.847656 5.402344 12.71875 5.5C9.914063 7.457031 7.855469 9.910156 6.34375 11.96875C5.589844 13 4.976563 13.929688 4.46875 14.65625C3.960938 15.382813 3.535156 15.933594 3.40625 16.03125C3.070313 16.226563 2.875 16.601563 2.914063 16.988281C2.949219 17.378906 3.207031 17.710938 3.574219 17.839844C3.941406 17.96875 4.351563 17.875 4.625 17.59375C5.1875 17.15625 5.566406 16.566406 6.09375 15.8125C6.621094 15.058594 7.246094 14.144531 7.96875 13.15625C9.414063 11.183594 11.304688 8.929688 13.84375 7.15625C14.230469 6.914063 14.402344 6.4375 14.261719 6.003906C14.121094 5.570313 13.707031 5.285156 13.25 5.3125C13.21875 5.3125 13.1875 5.3125 13.15625 5.3125 Z M 24.65625 7C24.105469 7.078125 23.71875 7.589844 23.796875 8.140625C23.875 8.691406 24.386719 9.078125 24.9375 9C35.101563 9.59375 39.398438 15.25 41.21875 21.65625C43.039063 28.0625 42.082031 35.269531 41.21875 37.9375C41.046875 38.464844 41.332031 39.03125 41.859375 39.203125C42.386719 39.375 42.953125 39.089844 43.125 38.5625C44.164063 35.355469 45.128906 28.070313 43.15625 21.125C41.183594 14.179688 35.960938 7.636719 25.0625 7C24.988281 6.992188 24.917969 6.992188 24.84375 7C24.8125 7 24.78125 7 24.75 7C24.71875 7 24.6875 7 24.65625 7 Z M 38.21875 7.0625C37.820313 7.136719 37.503906 7.445313 37.421875 7.84375C37.339844 8.242188 37.507813 8.648438 37.84375 8.875C45.664063 14.273438 46.90625 26.5 46.90625 26.5C46.957031 27.050781 47.449219 27.457031 48 27.40625C48.550781 27.355469 48.957031 26.863281 48.90625 26.3125C48.90625 26.3125 47.835938 13.375 38.96875 7.25C38.753906 7.089844 38.484375 7.023438 38.21875 7.0625 Z M 20.8125 7.375C20.792969 7.382813 20.769531 7.394531 20.75 7.40625C13.839844 8.777344 10.496094 13.535156 7.90625 17.5625C7.605469 18.027344 7.738281 18.652344 8.203125 18.953125C8.667969 19.253906 9.292969 19.121094 9.59375 18.65625C12.152344 14.671875 14.949219 10.570313 21.125 9.34375C21.628906 9.21875 21.957031 8.730469 21.875 8.214844C21.792969 7.703125 21.332031 7.335938 20.8125 7.375 Z M 25 12C21.523438 12 18.867188 13.113281 16.8125 14.78125C16.378906 15.125 16.3125 15.757813 16.65625 16.1875C17 16.621094 17.632813 16.6875 18.0625 16.34375C19.8125 14.925781 21.941406 14 25 14C25.882813 14 26.726563 14.074219 27.53125 14.21875C27.890625 14.296875 28.261719 14.171875 28.5 13.894531C28.742188 13.613281 28.808594 13.226563 28.679688 12.886719C28.546875 12.542969 28.238281 12.296875 27.875 12.25C26.953125 12.085938 25.996094 12 25 12 Z M 31.25 13.4375C31.21875 13.445313 31.1875 13.457031 31.15625 13.46875C30.742188 13.5625 30.429688 13.90625 30.382813 14.328125C30.332031 14.75 30.554688 15.15625 30.9375 15.34375C35.316406 17.578125 38 22.445313 38 29C38 30.945313 37.761719 33.007813 37.40625 34.96875C37.300781 35.511719 37.660156 36.035156 38.203125 36.140625C38.746094 36.246094 39.269531 35.886719 39.375 35.34375C39.746094 33.300781 40 31.113281 40 29C40 21.890625 36.980469 16.183594 31.84375 13.5625C31.664063 13.460938 31.457031 13.417969 31.25 13.4375 Z M 25 17C22.394531 17 20.371094 17.835938 18.84375 19.125C17.316406 20.414063 16.273438 22.101563 15.34375 23.84375C15.085938 24.335938 15.273438 24.945313 15.765625 25.203125C16.257813 25.460938 16.867188 25.273438 17.125 24.78125C18.007813 23.121094 18.921875 21.671875 20.125 20.65625C21.328125 19.640625 22.796875 19 25 19C27.078125 19 28.59375 19.652344 29.78125 20.6875C30.96875 21.722656 31.820313 23.171875 32.34375 24.78125C32.433594 25.140625 32.714844 25.425781 33.074219 25.511719C33.4375 25.601563 33.816406 25.484375 34.0625 25.207031C34.308594 24.925781 34.382813 24.535156 34.25 24.1875C33.640625 22.316406 32.625 20.523438 31.09375 19.1875C29.5625 17.851563 27.511719 17 25 17 Z M 14.46875 17.5625C14.199219 17.613281 13.960938 17.769531 13.8125 18C11.816406 20.699219 10.375 23.695313 8.71875 25.84375C7.0625 27.992188 5.421875 29.269531 2.5 29C1.949219 28.949219 1.457031 29.355469 1.40625 29.90625C1.355469 30.457031 1.761719 30.949219 2.3125 31C5.9375 31.332031 8.457031 29.472656 10.3125 27.0625C12.167969 24.652344 13.570313 21.671875 15.40625 19.1875C15.644531 18.890625 15.691406 18.488281 15.535156 18.144531C15.375 17.800781 15.035156 17.574219 14.65625 17.5625C14.625 17.5625 14.59375 17.5625 14.5625 17.5625C14.53125 17.5625 14.5 17.5625 14.46875 17.5625 Z M 6.53125 20.375C6.476563 20.382813 6.425781 20.390625 6.375 20.40625C6.121094 20.457031 5.898438 20.601563 5.75 20.8125C4.578125 22.410156 3.414063 23.566406 1.96875 24.0625C1.59375 24.144531 1.296875 24.4375 1.210938 24.816406C1.125 25.191406 1.261719 25.582031 1.5625 25.820313C1.867188 26.0625 2.277344 26.105469 2.625 25.9375C4.644531 25.242188 6.097656 23.738281 7.375 22C7.625 21.691406 7.667969 21.265625 7.484375 20.914063C7.300781 20.558594 6.925781 20.347656 6.53125 20.375 Z M 23.3125 21.375C23.191406 21.394531 23.074219 21.4375 22.96875 21.5C21.226563 22.445313 20.425781 24.347656 19.75 26.25C19.074219 28.152344 18.523438 30.160156 17.84375 31.46875C15.882813 35.246094 12.136719 39 7 39C6.640625 38.996094 6.304688 39.183594 6.121094 39.496094C5.941406 39.808594 5.941406 40.191406 6.121094 40.503906C6.304688 40.816406 6.640625 41.003906 7 41C13.097656 41 17.429688 36.636719 19.625 32.40625C20.480469 30.753906 20.996094 28.714844 21.625 26.9375C22.253906 25.160156 23.027344 23.742188 23.9375 23.25C24.375 23.023438 24.582031 22.511719 24.429688 22.042969C24.273438 21.578125 23.796875 21.292969 23.3125 21.375 Z M 26.78125 21.5625C26.367188 21.632813 26.042969 21.953125 25.96875 22.363281C25.890625 22.777344 26.078125 23.191406 26.4375 23.40625C27.425781 24.078125 28 25.847656 28 28.125C28 29.632813 27.457031 33.179688 26.03125 36.84375C24.605469 40.507813 22.296875 44.320313 18.9375 46.71875C18.480469 47.039063 18.367188 47.667969 18.6875 48.125C19.007813 48.582031 19.636719 48.695313 20.09375 48.375C23.914063 45.648438 26.359375 41.460938 27.875 37.5625C29.390625 33.664063 30 30.074219 30 28.125C30 25.535156 29.4375 23.042969 27.53125 21.75C27.316406 21.589844 27.046875 21.523438 26.78125 21.5625 Z M 24.84375 26C24.375 26.074219 24.023438 26.464844 24 26.9375C24 26.9375 23.785156 30.222656 22.0625 34.09375C21.863281 34.425781 21.875 34.839844 22.085938 35.160156C22.300781 35.480469 22.679688 35.652344 23.0625 35.597656C23.441406 35.542969 23.761719 35.273438 23.875 34.90625C25.746094 30.707031 26 27.0625 26 27.0625C26.023438 26.757813 25.90625 26.457031 25.679688 26.25C25.453125 26.042969 25.144531 25.953125 24.84375 26 Z M 14.125 27C13.828125 27.0625 13.574219 27.257813 13.4375 27.53125C12.472656 29.328125 11.410156 30.972656 9.96875 32.125C8.527344 33.277344 6.707031 34 3.96875 34C3.609375 33.996094 3.273438 34.183594 3.089844 34.496094C2.910156 34.808594 2.910156 35.191406 3.089844 35.503906C3.273438 35.816406 3.609375 36.003906 3.96875 36C7.082031 36 9.441406 35.105469 11.21875 33.6875C12.996094 32.269531 14.203125 30.390625 15.21875 28.5C15.414063 28.167969 15.402344 27.753906 15.191406 27.4375C14.976563 27.117188 14.597656 26.945313 14.21875 27C14.1875 27 14.15625 27 14.125 27 Z M 33.90625 27.96875C33.863281 27.976563 33.820313 27.988281 33.78125 28C33.316406 28.105469 32.988281 28.523438 33 29C33 39.371094 26.96875 47.03125 26.96875 47.03125C26.625 47.472656 26.699219 48.109375 27.140625 48.453125C27.582031 48.796875 28.21875 48.722656 28.5625 48.28125C28.5625 48.28125 35 40.144531 35 29C35.011719 28.710938 34.894531 28.433594 34.6875 28.238281C34.476563 28.039063 34.191406 27.941406 33.90625 27.96875 Z M 21.0625 36.78125C20.765625 36.820313 20.5 36.992188 20.34375 37.25C18.617188 39.871094 16.113281 42.347656 12.40625 43.96875C11.898438 44.183594 11.660156 44.773438 11.875 45.28125C12.089844 45.789063 12.679688 46.027344 13.1875 45.8125C17.289063 44.019531 20.101563 41.21875 22 38.34375C22.222656 38.019531 22.238281 37.597656 22.035156 37.261719C21.832031 36.921875 21.453125 36.734375 21.0625 36.78125 Z M 37.28125 38.34375C36.875 38.414063 36.554688 38.722656 36.46875 39.125C35.683594 42.09375 34.90625 44.15625 34.90625 44.15625C34.757813 44.496094 34.8125 44.890625 35.046875 45.179688C35.277344 45.46875 35.648438 45.605469 36.015625 45.535156C36.378906 45.464844 36.671875 45.199219 36.78125 44.84375C36.78125 44.84375 37.597656 42.691406 38.40625 39.625C38.5 39.308594 38.433594 38.96875 38.226563 38.714844C38.019531 38.457031 37.703125 38.320313 37.375 38.34375C37.34375 38.34375 37.3125 38.34375 37.28125 38.34375Z" fill="#FFFFFF" />
</svg>